<svg width="168" height="85" viewBox="0 0 168 85" fill="none" xmlns="http://www.w3.org/2000/svg">
<path d="M41.8641 59.8614L62.4928 52.0591L52.4432 32.4275L35.3724 18.4639L23.3953 36.9833L19.8389 58.748L41.8641 59.8614Z" stroke="url(#paint0_radial_1_5)" stroke-width="0.506146"/>
<path d="M40.3939 60.0246L61.6242 54.0499L53.3238 33.6171L37.535 18.2189L23.9894 35.6239L18.5496 56.9958L40.3939 60.0246Z" stroke="url(#paint1_radial_1_5)" stroke-width="0.506145"/>
<path d="M38.9115 60.0631L60.5817 55.9615L54.0938 34.8831L39.7071 18.1674L24.6961 34.3256L17.4143 55.142L38.9115 60.0631Z" stroke="url(#paint2_radial_1_5)" stroke-width="0.506146"/>
<path d="M37.4332 59.9703L59.3784 57.773L54.7523 36.2093L41.8772 18.3033L25.5151 33.0918L16.4467 53.1943L37.4332 59.9703Z" stroke="url(#paint3_radial_1_5)" stroke-width="0.506145"/>
<path d="M35.9673 59.7501L58.0205 59.4738L55.2913 37.589L44.0259 18.629L26.4371 31.9351L15.6512 51.1708L35.9673 59.7501Z" stroke="url(#paint4_radial_1_5)" stroke-width="0.506146"/>
<path d="M34.5284 59.402L56.5218 61.0488L55.7104 39.0095L46.1403 19.1397L27.4587 30.8623L15.0374 49.0847L34.5284 59.402Z" stroke="url(#paint5_radial_1_5)" stroke-width="0.506145"/>
<path d="M33.1262 58.9278L54.8923 62.4852L56.0049 40.459L48.203 19.8308L28.5708 29.8805L14.6085 46.951L33.1262 58.9278Z" stroke="url(#paint6_radial_1_5)" stroke-width="0.506145"/>
<path d="M31.7673 58.3377L53.1405 63.7786L56.1686 41.9332L50.1942 20.7035L29.7609 29.0039L14.3639 44.7926L31.7673 58.3377Z" stroke="url(#paint7_radial_1_5)" stroke-width="0.506146"/>
<path d="M30.4719 57.6259L51.2897 64.9089L56.2101 43.4105L52.1088 21.7409L31.0298 28.2288L14.3153 42.6155L30.4719 57.6259Z" stroke="url(#paint8_radial_1_5)" stroke-width="0.506146"/>
<path d="M29.2369 56.8069L49.3406 65.8766L56.1161 44.8888L53.919 22.9442L32.3547 27.5704L14.45 40.4455L29.2369 56.8069Z" stroke="url(#paint9_radial_1_5)" stroke-width="0.506145"/>
<path d="M28.0765 55.8845L47.3132 66.6718L55.8921 46.3544L55.616 24.3019L33.7306 27.0309L14.7719 38.2966L28.0765 55.8845Z" stroke="url(#paint10_radial_1_5)" stroke-width="0.506146"/>
<path d="M27.0057 54.8623L45.2291 67.2852L55.5461 47.7928L57.193 25.8001L35.153 26.6113L15.2846 36.1817L27.0057 54.8623Z" stroke="url(#paint11_radial_1_5)" stroke-width="0.506146"/>
<path d="M26.0252 53.7528L43.0965 67.7166L55.0731 49.1977L58.6306 27.4322L36.6037 26.3194L15.9768 34.1217L26.0252 53.7528Z" stroke="url(#paint12_radial_1_5)" stroke-width="0.506146"/>
<path d="M25.1437 52.5622L40.933 67.9607L54.4781 50.5561L59.919 29.1834L38.073 26.1551L16.8445 32.13L25.1437 52.5622Z" stroke="url(#paint13_radial_1_5)" stroke-width="0.506146"/>
<path d="M24.3761 51.2967L38.7633 68.0128L53.7738 51.8549L61.0567 31.0378L39.5578 26.117L17.8893 30.219L24.3761 51.2967Z" stroke="url(#paint14_radial_1_5)" stroke-width="0.506146"/>
<path d="M23.7181 49.9699L36.5936 67.8764L52.9552 53.0882L62.0248 32.9851L41.0365 26.2092L19.093 28.4071L23.7181 49.9699Z" stroke="url(#paint15_radial_1_5)" stroke-width="0.506145"/>
<path d="M23.1719 48.5933L34.4378 67.5537L52.026 54.2478L62.8132 35.0116L42.4953 26.4324L20.4438 26.7094L23.1719 48.5933Z" stroke="url(#paint16_radial_1_5)" stroke-width="0.506145"/>
<path d="M29.2447 55.5387C35.7456 61.1639 45.508 59.1148 50.6008 52.6383L50.6097 52.6291C56.2774 47.2165 55.4223 37.2302 49.5522 32.3506L49.5116 32.317L49.5214 32.2654C49.6145 31.7711 49.458 31.2178 48.9018 30.7855C44.9568 27.7732 40.8595 26.9088 37.1503 27.5042C33.4393 28.0999 30.11 30.1576 27.7057 32.9977C22.8969 38.6783 21.8 47.4718 28.733 53.9364L28.771 53.9717L28.7591 54.0228C28.6249 54.5611 28.792 55.1561 29.2439 55.5381L29.2447 55.5387ZM29.6091 52.9541C23.9774 47.1943 24.9475 39.569 29.0253 34.7336C31.0644 32.3157 33.8834 30.5908 37.0483 30.1442C40.2136 29.6976 43.7165 30.5315 47.1213 33.214C47.6665 33.5922 48.2102 33.5951 48.643 33.3943L48.6976 33.3698L48.7409 33.4109C51.1508 35.6683 52.5018 38.9627 52.6118 42.2539C52.7217 45.5432 51.5924 48.8372 49.0312 51.092C46.9391 53.6842 43.7712 55.4452 40.4883 55.9531C37.3045 56.4456 34.0059 55.7603 31.4764 53.5024L31.2344 53.2787C30.8065 52.8874 30.2131 52.7906 29.7027 52.9759L29.6497 52.9954L29.6091 52.9541Z" fill="#009400"/>
<path d="M50.6008 52.6383C45.508 59.1148 35.7456 61.1639 29.2447 55.5387L29.2439 55.5381C28.792 55.1561 28.6249 54.5611 28.7591 54.0228L28.771 53.9717L28.733 53.9364C21.8 47.4718 22.8969 38.6783 27.7057 32.9977C30.11 30.1576 33.4393 28.0999 37.1503 27.5042C40.8595 26.9088 44.9568 27.7732 48.9018 30.7855C49.458 31.2178 49.6145 31.7711 49.5214 32.2654L49.5116 32.317L49.5522 32.3506C55.4223 37.2302 56.2774 47.2165 50.6097 52.6291L50.6008 52.6383ZM50.6008 52.6383L50.6712 52.6941M29.6091 52.9541C23.9774 47.1943 24.9475 39.569 29.0253 34.7336C31.0644 32.3157 33.8834 30.5908 37.0483 30.1442C40.2136 29.6976 43.7165 30.5315 47.1213 33.214C47.6665 33.5922 48.2102 33.5951 48.643 33.3943L48.6976 33.3698L48.7409 33.4109C51.1508 35.6683 52.5018 38.9627 52.6118 42.2539C52.7217 45.5432 51.5924 48.8372 49.0312 51.092C46.9391 53.6842 43.7712 55.4452 40.4883 55.9531C37.3045 56.4456 34.0059 55.7603 31.4764 53.5024L31.2344 53.2787C30.8065 52.8874 30.2131 52.7906 29.7027 52.9759L29.6497 52.9954L29.6091 52.9541Z" stroke="url(#paint17_radial_1_5)" stroke-width="0.178206"/>
<path d="M43.3657 67.5807L43.3586 67.5862C42.6255 68.1724 41.5377 68.3655 40.5903 68.1557C39.6998 67.9584 38.9156 67.3995 38.6712 66.454L38.6298 66.2623C38.5237 65.7432 38.1074 65.3658 37.6137 65.2832L37.5147 65.2709C34.4607 65.0178 31.4805 64.1177 28.7975 62.6333L28.7938 62.6302C28.5711 62.4929 28.3648 62.4559 28.1693 62.4774C27.9713 62.4993 27.7773 62.5821 27.5814 62.6964C27.3841 62.8117 27.194 62.9536 26.9966 63.0893C26.8033 63.222 26.6035 63.3481 26.3986 63.423C25.7886 63.6671 25.1959 63.5834 24.6528 63.3384C24.1118 63.0944 23.615 62.6893 23.1903 62.2808C22.1127 61.4779 22.0457 60.0203 22.7199 58.9222C22.9864 58.4989 22.933 57.9616 22.6267 57.5986C20.6351 55.2518 19.1596 52.4742 18.3164 49.5129C18.2017 49.1125 17.8735 48.8304 17.4906 48.754L17.3237 48.7335C15.4026 48.7246 14.3035 46.8848 14.7574 45.1432L14.8062 44.9743C15.194 43.7355 16.0856 42.641 16.8462 41.5695C17.7474 40.1834 18.2314 38.6064 18.6115 36.9863C18.9896 35.375 19.2661 33.7108 19.7545 32.1759C19.7849 30.9185 19.2395 30.4166 19.0036 29.7761C18.8846 29.4531 18.8595 29.1138 19.0501 28.665C19.2378 28.2229 19.6341 27.6751 20.3475 26.9257L20.3481 26.9249C20.4886 26.78 20.6532 26.6637 20.8352 26.5766L20.8412 26.5739C21.2749 26.4016 21.7233 26.3384 22.1786 26.3095C22.406 26.295 22.6368 26.2886 22.8689 26.2821L23.5742 26.2519C25.3401 26.0547 26.9696 25.2848 28.5818 24.4367C30.1883 23.5915 31.7816 22.6669 33.4572 22.1844C33.7677 22.055 33.9348 21.8414 34.0447 21.5742C34.1584 21.2979 34.2069 20.9763 34.2874 20.6258C34.3664 20.2817 34.475 19.9207 34.7093 19.5991C34.945 19.2755 35.3032 18.9993 35.8706 18.8128L35.8705 18.8114L35.878 18.81C36.9683 18.5549 37.7185 18.4592 38.2638 18.4904C38.8142 18.522 39.1598 18.6837 39.4348 18.9419C39.7012 19.1921 39.902 19.5354 40.1602 19.9043C40.4205 20.2762 40.7514 20.6945 41.2912 21.1259C42.7406 21.6908 44.2097 22.2125 45.7052 22.6684L45.7059 22.6676C46.1374 22.77 46.5786 22.8994 47.0235 23.0326C47.469 23.166 47.9181 23.3033 48.3692 23.4235C49.2691 23.6633 50.1683 23.8318 51.0388 23.762C51.2763 23.7144 51.5208 23.6289 51.7713 23.5323C52.0198 23.4363 52.2769 23.3289 52.5298 23.2468C53.0365 23.0823 53.5607 23.0056 54.0446 23.316L54.0476 23.3185C55.2813 24.1816 55.9843 24.9131 56.3565 25.5506C56.7308 26.1919 56.7686 26.7347 56.6808 27.2105C56.6373 27.4462 56.5635 27.6637 56.4878 27.8651C56.411 28.0694 56.3343 28.252 56.2795 28.4296C56.2253 28.6053 56.1958 28.766 56.21 28.9201C56.224 29.0721 56.2809 29.2242 56.4096 29.3815C57.8389 31.127 57.7253 30.9884 58.4656 32.1155C58.6428 32.3853 58.9227 32.8375 59.2578 33.1917C59.4251 33.3685 59.6023 33.5158 59.7815 33.6035C59.9591 33.6903 60.1348 33.7172 60.3084 33.6613C60.6237 33.5598 60.8088 33.4052 60.912 33.2307C61.0159 33.055 61.0435 32.8468 61.0215 32.6262C60.9772 32.1836 60.7368 31.7194 60.5767 31.4449C58.8963 29.1301 60.1202 30.7704 58.4115 28.6544L58.3778 28.6124L58.3974 28.5628C58.9855 27.0579 58.6373 25.5542 57.8039 24.2759C56.9702 22.9971 55.6545 21.9518 54.3285 21.3714C53.5479 21.0942 52.5993 21.2634 51.8589 21.5136L51.5558 21.625C50.98 21.8569 50.2508 21.8785 49.4534 21.7775C48.6543 21.6763 47.7761 21.45 46.8965 21.1747C46.0167 20.8994 45.1317 20.5745 44.3197 20.2749C43.5062 19.9747 42.7671 19.701 42.1744 19.5263L42.1459 19.5179L42.1284 19.4945C41.9587 19.2776 41.7965 19.0431 41.634 18.8089C41.471 18.5738 41.3069 18.3385 41.1306 18.1157C40.7785 17.6708 40.3823 17.283 39.8622 17.0567C38.3908 16.5068 36.6345 16.5435 35.1871 17.1377C33.7412 17.7315 32.6119 18.8766 32.3708 20.5391L32.3621 20.5954L32.309 20.6135C30.8811 21.0992 29.5826 21.7834 28.2776 22.4558C27.1377 23.0432 25.9927 23.6211 24.7606 24.0423L24.2266 24.2133L24.2184 24.2154L23.9193 24.2654C23.6176 24.3081 23.3085 24.3296 22.9981 24.3449C22.5817 24.3653 22.1663 24.3747 21.7527 24.4066C20.9798 24.4661 20.2365 24.6041 19.5835 25.0341L19.4539 25.1245C18.4168 25.8986 17.5607 26.9912 17.178 28.1774C16.7962 29.3611 16.885 30.6366 17.7346 31.7916L17.7625 31.8299L17.7473 31.8757C17.3357 33.1192 17.071 34.6241 16.7135 36.1371C16.3575 37.6436 15.9096 39.1514 15.1359 40.3748L15.138 40.3753L15.133 40.3813C14.4513 41.2891 13.707 42.2784 13.1902 43.3464C12.6741 44.4128 12.3874 45.5506 12.6139 46.7552L12.6152 46.7551L12.6336 46.9531C12.8648 48.872 14.5024 50.4346 16.378 50.7951L16.4317 50.8054L16.449 50.8579C17.3 53.5791 18.6383 56.1502 20.3826 58.4127L20.4172 58.4567L20.3929 58.5089C19.3586 60.6806 20.3463 63.0233 22.1007 64.487C23.8555 65.951 26.341 66.505 28.2695 65.1367L28.3157 65.104L28.3653 65.1299C30.8528 66.4308 33.7715 67.0509 36.5678 67.4229L36.6218 67.4296L36.6418 67.4805C37.5152 69.6901 39.6674 70.6618 41.7288 70.4799C43.7898 70.298 45.7419 68.9643 46.2164 66.5784L46.2236 66.5438L46.2515 66.5225C48.3103 64.974 50.1124 63.8449 51.6387 63.1442C53.1625 62.4446 54.4241 62.1666 55.3959 62.3357C55.873 62.4187 56.366 62.3884 56.681 62.0748C57.7007 61.0593 58.8845 59.5359 59.3313 58.8795C59.5733 58.524 59.6504 58.251 59.608 58.0292C59.5659 57.8088 59.4003 57.611 59.0906 57.4171C58.8198 57.2476 58.5037 57.3475 58.2298 57.52C58.0961 57.6043 57.9797 57.7008 57.8973 57.777C57.8562 57.815 57.8234 57.8483 57.8013 57.8712C57.7904 57.8825 57.7822 57.8918 57.7767 57.8978C57.7745 57.9002 57.7723 57.9018 57.771 57.9032C57.3953 58.3598 57.0986 58.7577 56.8388 59.0953C56.5803 59.4311 56.3563 59.7101 56.1291 59.9214C55.9004 60.1342 55.6649 60.2826 55.3828 60.3528C55.1019 60.4227 54.783 60.4129 54.3901 60.3272C54.2147 60.2889 53.9769 60.2957 53.6844 60.3457C53.3933 60.3955 53.0539 60.4874 52.6788 60.6139C51.9285 60.867 51.0404 61.2571 50.1137 61.72C48.2604 62.6458 46.2599 63.8588 44.9056 64.8396L44.9024 64.842L44.7448 64.96C44.4021 65.2529 44.2174 65.6653 44.0544 66.1116C43.8716 66.6121 43.7146 67.166 43.3719 67.5732L43.3657 67.5807Z" fill="#009400" stroke="url(#paint18_radial_1_5)" stroke-width="0.184566"/>
<path d="M42.6002 35.0816L40.0568 35.7529L38.3497 35.0816L35.5621 44.3811H38.5032L35.9281 51.3234L42.2348 42.0244H38.4385L42.6002 35.0816Z" fill="#0069BD"/>
<path d="M60.8842 55.6109V50.2315H61.914L64.2041 54.0278H63.6584L65.9101 50.2315H66.9322L66.9475 55.6109H65.7794L65.7718 52.0221H65.9869L64.1887 55.0422H63.6277L61.791 52.0221H62.0523V55.6109H60.8842ZM70.8482 55.7031C70.4229 55.7031 70.0285 55.6339 69.6647 55.4956C69.3061 55.3573 68.9936 55.1626 68.7272 54.9116C68.4659 54.6605 68.2609 54.366 68.1124 54.0278C67.9689 53.6897 67.8972 53.3208 67.8972 52.9212C67.8972 52.5216 67.9689 52.1527 68.1124 51.8146C68.2609 51.4765 68.4684 51.1819 68.7348 50.9308C69.0013 50.6798 69.3138 50.4851 69.6724 50.3468C70.031 50.2085 70.4204 50.1393 70.8405 50.1393C71.2657 50.1393 71.6551 50.2085 72.0086 50.3468C72.3672 50.4851 72.6771 50.6798 72.9384 50.9308C73.2048 51.1819 73.4123 51.4765 73.5609 51.8146C73.7095 52.1476 73.7838 52.5165 73.7838 52.9212C73.7838 53.3208 73.7095 53.6923 73.5609 54.0355C73.4123 54.3736 73.2048 54.6682 72.9384 54.9193C72.6771 55.1652 72.3672 55.3573 72.0086 55.4956C71.6551 55.6339 71.2683 55.7031 70.8482 55.7031ZM70.8405 54.6426C71.0813 54.6426 71.3016 54.6016 71.5014 54.5197C71.7063 54.4377 71.8856 54.3198 72.0393 54.1661C72.193 54.0125 72.3108 53.8306 72.3928 53.6205C72.4799 53.4105 72.5235 53.1774 72.5235 52.9212C72.5235 52.6651 72.4799 52.4319 72.3928 52.2219C72.3108 52.0118 72.193 51.83 72.0393 51.6763C71.8907 51.5226 71.714 51.4047 71.5091 51.3228C71.3041 51.2408 71.0813 51.1998 70.8405 51.1998C70.5997 51.1998 70.3768 51.2408 70.1719 51.3228C69.9721 51.4047 69.7953 51.5226 69.6417 51.6763C69.488 51.83 69.3676 52.0118 69.2805 52.2219C69.1985 52.4319 69.1575 52.6651 69.1575 52.9212C69.1575 53.1722 69.1985 53.4054 69.2805 53.6205C69.3676 53.8306 69.4854 54.0125 69.634 54.1661C69.7877 54.3198 69.967 54.4377 70.1719 54.5197C70.3768 54.6016 70.5997 54.6426 70.8405 54.6426ZM75.7702 55.6109V51.2459H74.0488V50.2315H78.7365V51.2459H77.0151V55.6109H75.7702ZM81.9556 55.7031C81.5304 55.7031 81.1359 55.6339 80.7722 55.4956C80.4136 55.3573 80.101 55.1626 79.8346 54.9116C79.5734 54.6605 79.3684 54.366 79.2199 54.0278C79.0764 53.6897 79.0047 53.3208 79.0047 52.9212C79.0047 52.5216 79.0764 52.1527 79.2199 51.8146C79.3684 51.4765 79.5759 51.1819 79.8423 50.9308C80.1087 50.6798 80.4212 50.4851 80.7799 50.3468C81.1385 50.2085 81.5279 50.1393 81.948 50.1393C82.3732 50.1393 82.7625 50.2085 83.1157 50.3468C83.4747 50.4851 83.7847 50.6798 84.0457 50.9308C84.3127 51.1819 84.5197 51.4765 84.6687 51.8146C84.8167 52.1476 84.8917 52.5165 84.8917 52.9212C84.8917 53.3208 84.8167 53.6923 84.6687 54.0355C84.5197 54.3736 84.3127 54.6682 84.0457 54.9193C83.7847 55.1652 83.4747 55.3573 83.1157 55.4956C82.7625 55.6339 82.3757 55.7031 81.9556 55.7031ZM81.948 54.6426C82.1887 54.6426 82.409 54.6016 82.6088 54.5197C82.8137 54.4377 82.9927 54.3198 83.1467 54.1661C83.3007 54.0125 83.4187 53.8306 83.5007 53.6205C83.5877 53.4105 83.6307 53.1774 83.6307 52.9212C83.6307 52.6651 83.5877 52.4319 83.5007 52.2219C83.4187 52.0118 83.3007 51.83 83.1467 51.6763C82.9987 51.5226 82.8217 51.4047 82.6165 51.3228C82.4116 51.2408 82.1887 51.1998 81.948 51.1998C81.7072 51.1998 81.4843 51.2408 81.2794 51.3228C81.0796 51.4047 80.9028 51.5226 80.7491 51.6763C80.5954 51.83 80.475 52.0118 80.3879 52.2219C80.306 52.4319 80.265 52.6651 80.265 52.9212C80.265 53.1722 80.306 53.4054 80.3879 53.6205C80.475 53.8306 80.5929 54.0125 80.7414 54.1661C80.8951 54.3198 81.0745 54.4377 81.2794 54.5197C81.4843 54.6016 81.7072 54.6426 81.948 54.6426ZM85.8387 55.6109V50.2315H88.1667C88.6487 50.2315 89.0637 50.3109 89.4117 50.4698C89.7597 50.6235 90.0287 50.8463 90.2187 51.1383C90.4087 51.4304 90.5027 51.7787 90.5027 52.1835C90.5027 52.5831 90.4087 52.9289 90.2187 53.2209C90.0287 53.5078 89.7597 53.7281 89.4117 53.8818C89.0637 54.0355 88.6487 54.1124 88.1667 54.1124H86.5297L87.0837 53.5667V55.6109H85.8387ZM89.2577 55.6109L87.9137 53.659H89.2427L90.6027 55.6109H89.2577ZM87.0837 53.7051L86.5297 53.121H88.0977C88.4817 53.121 88.7687 53.039 88.9587 52.8751C89.1477 52.706 89.2427 52.4755 89.2427 52.1835C89.2427 51.8863 89.1477 51.6558 88.9587 51.4918C88.7687 51.3279 88.4817 51.2459 88.0977 51.2459H86.5297L87.0837 50.6542V53.7051Z" fill="#009400"/>
<path d="M63.447 45.6197C63.3749 46.3406 62.9785 46.731 62.2576 46.7911C61.9212 46.7911 61.6268 46.683 61.3745 46.4667C61.1342 46.2384 61.0141 45.9561 61.0141 45.6197V37.1134C61.0261 36.777 61.1523 36.5006 61.3925 36.2844C61.6328 36.0561 61.9212 35.9419 62.2576 35.9419H69.8268C70.8841 35.978 71.683 36.2123 72.2237 36.6448C72.7643 37.0653 73.1548 37.5459 73.3951 38.0865C73.6354 38.6272 73.7555 39.1739 73.7555 39.7265C73.7555 40.3032 73.6354 40.8619 73.3951 41.4026C73.1668 41.9432 72.7764 42.4298 72.2237 42.8623C71.683 43.2829 70.9922 43.4871 70.1512 43.4751H65.6097C65.2733 43.4751 64.9909 43.3549 64.7626 43.1147C64.5223 42.8864 64.4022 42.604 64.4022 42.2676C64.4022 41.9312 64.5163 41.6489 64.7446 41.4206C64.9849 41.1803 65.2733 41.0602 65.6097 41.0602H70.2593C70.4876 41.0602 70.6738 40.9881 70.818 40.8439C70.9742 40.6877 71.0883 40.5135 71.1604 40.3213C71.2325 40.117 71.2685 39.9128 71.2685 39.7085C71.2685 39.5163 71.2325 39.3241 71.1604 39.1318C71.0883 38.9276 70.9742 38.7534 70.818 38.6092C70.6738 38.453 70.4876 38.3689 70.2593 38.3569H63.9156C63.6032 38.3689 63.447 38.5251 63.447 38.8254V45.6197ZM76.9371 38.2127C77.2614 38.2247 77.5378 38.3449 77.7661 38.5731C77.9943 38.7894 78.1145 39.0597 78.1265 39.3841V45.6197C78.0544 46.3406 77.6579 46.731 76.9371 46.7911C76.6006 46.7911 76.3063 46.683 76.054 46.4667C75.8137 46.2384 75.6935 45.9561 75.6935 45.6197V39.3841C75.7056 39.0477 75.8317 38.7714 76.072 38.5551C76.3123 38.3268 76.6006 38.2127 76.9371 38.2127ZM75.4232 35.8699C75.4232 35.5335 75.5674 35.2451 75.8557 35.0048C76.1441 34.7645 76.4925 34.6444 76.901 34.6444C77.3095 34.6444 77.6579 34.7645 77.9463 35.0048C78.2346 35.2451 78.3788 35.5335 78.3788 35.8699C78.3788 36.2183 78.2346 36.5126 77.9463 36.7529C77.6579 36.9932 77.3095 37.1134 76.901 37.1134C76.4925 37.1134 76.1441 36.9932 75.8557 36.7529C75.5674 36.5126 75.4232 36.2183 75.4232 35.8699ZM81.0917 42.2856C80.8274 42.2856 80.5991 42.1955 80.4069 42.0153C80.2147 41.8231 80.1186 41.5948 80.1186 41.3305C80.1186 41.0541 80.2147 40.8259 80.4069 40.6457C80.5991 40.4534 80.8274 40.3573 81.0917 40.3573H84.1917C84.4557 40.3573 84.6837 40.4534 84.8767 40.6457C85.0687 40.8259 85.1647 41.0541 85.1647 41.3305C85.1647 41.5948 85.0687 41.8231 84.8767 42.0153C84.6837 42.1955 84.4557 42.2856 84.1917 42.2856H81.0917ZM91.3017 38.3569C90.8457 38.3809 90.4607 38.5551 90.1487 38.8795C89.8477 39.2039 89.6317 39.5764 89.4997 39.9969C89.3677 40.4054 89.3017 40.8259 89.3017 41.2584C89.3017 41.6909 89.3617 42.1174 89.4817 42.538C89.6137 42.9585 89.8357 43.3309 90.1487 43.6553C90.4607 43.9677 90.8457 44.1359 91.3017 44.1599H97.2487C98.0057 44.232 98.4207 44.6465 98.4927 45.4034C98.4807 45.7398 98.3547 46.0222 98.1137 46.2505C97.8737 46.4667 97.5857 46.5748 97.2487 46.5748H91.4997H90.6707C89.8297 46.5268 89.1387 46.2084 88.5987 45.6197C88.0577 45.019 87.6677 44.3401 87.4267 43.5832C87.1987 42.8263 87.0847 42.0514 87.0847 41.2584C87.0847 40.6697 87.1507 40.087 87.2827 39.5103C87.4147 38.9336 87.6197 38.3869 87.8957 37.8703C88.1837 37.3416 88.5627 36.8911 89.0307 36.5186C89.5117 36.1462 90.0587 35.954 90.6707 35.9419H91.0137H97.2487C98.0057 36.014 98.4207 36.4285 98.4927 37.1855C98.4927 37.5219 98.3667 37.8042 98.1137 38.0325C97.8737 38.2487 97.5857 38.3569 97.2487 38.3569H91.3017ZM104.233 43.7815C104.233 43.4451 104.348 43.1627 104.576 42.9344C104.816 42.6941 105.104 42.574 105.441 42.574H108.198L107.73 41.2404C107.537 40.7478 107.345 40.2852 107.153 39.8527C106.973 39.4082 106.762 39.0057 106.522 38.6452C106.306 38.2848 106.06 38.0926 105.783 38.0685C105.495 38.0926 105.237 38.2848 105.008 38.6452C104.78 39.0057 104.57 39.4082 104.378 39.8527C104.197 40.2852 104.011 40.7478 103.819 41.2404L102.107 45.9261C101.987 46.1784 101.831 46.3886 101.638 46.5568C101.458 46.713 101.182 46.7911 100.809 46.7911C100.461 46.7911 100.172 46.671 99.9437 46.4307C99.7277 46.1904 99.6317 45.902 99.6557 45.5656C99.6677 45.4094 99.7037 45.2653 99.7637 45.1331L101.746 40.0149C102.299 38.6693 102.852 37.5819 103.404 36.7529C103.945 35.9359 104.738 35.5214 105.783 35.5094C106.817 35.5214 107.604 35.9359 108.144 36.7529C108.697 37.5579 109.25 38.6452 109.802 40.0149L111.785 45.1331C111.845 45.2653 111.881 45.4094 111.893 45.5656C111.917 45.902 111.815 46.1904 111.586 46.4307C111.37 46.671 111.088 46.7911 110.739 46.7911C110.343 46.7911 110.048 46.713 109.856 46.5568C109.676 46.3886 109.526 46.1784 109.406 45.9261L109.063 44.9889H105.441C105.104 44.9889 104.822 44.8688 104.594 44.6285C104.354 44.4002 104.233 44.1179 104.233 43.7815ZM121.544 35.9419C122.385 35.99 123.076 36.3144 123.617 36.9151C124.157 37.5038 124.548 38.1767 124.788 38.9336C125.028 39.6905 125.148 40.4654 125.148 41.2584C125.148 42.0514 125.028 42.8263 124.788 43.5832C124.56 44.3401 124.169 45.019 123.617 45.6197C123.076 46.2084 122.385 46.5268 121.544 46.5748H114.912C114.588 46.5628 114.311 46.4487 114.083 46.2324C113.867 46.0042 113.753 45.7278 113.741 45.4034V40.934C113.753 40.5976 113.879 40.3213 114.119 40.105C114.359 39.8767 114.648 39.7626 114.984 39.7626C115.309 39.7746 115.585 39.8947 115.813 40.123C116.041 40.3393 116.162 40.6096 116.174 40.934V43.6733C116.174 43.9977 116.342 44.1599 116.678 44.1599H120.931C121.388 44.1359 121.766 43.9617 122.067 43.6373C122.367 43.3129 122.583 42.9464 122.715 42.538C122.86 42.1174 122.932 41.6909 122.932 41.2584C122.932 40.8259 122.86 40.4054 122.715 39.9969C122.583 39.5764 122.367 39.2039 122.067 38.8795C121.766 38.5551 121.388 38.3809 120.931 38.3569H114.912C114.191 38.2968 113.801 37.9063 113.741 37.1855C113.741 36.849 113.849 36.5607 114.065 36.3204C114.293 36.0801 114.576 35.954 114.912 35.9419H121.544ZM138.801 37.1494C138.801 37.4858 138.681 37.7682 138.44 37.9964C138.212 38.2367 137.93 38.3569 137.593 38.3569H130.384C130.156 38.3689 129.964 38.423 129.808 38.5191C129.664 38.6032 129.555 38.7053 129.483 38.8254C129.411 38.9336 129.375 39.0477 129.375 39.1679C129.375 39.288 129.411 39.4082 129.483 39.5283C129.555 39.6364 129.664 39.7386 129.808 39.8347C129.964 39.9188 130.156 39.9668 130.384 39.9788H135.503C136.344 40.0029 137.035 40.2011 137.575 40.5736C138.128 40.934 138.518 41.3545 138.747 41.8351C138.987 42.3037 139.107 42.7842 139.107 43.2768C139.107 43.7574 138.987 44.238 138.747 44.7186C138.506 45.1872 138.116 45.6077 137.575 45.9801C137.035 46.3406 136.344 46.5208 135.503 46.5208H135.395C135.322 46.5328 135.25 46.5388 135.178 46.5388H128.366C128.03 46.5388 127.741 46.4247 127.501 46.1964C127.273 45.9561 127.159 45.6677 127.159 45.3313C127.159 44.9949 127.279 44.7126 127.519 44.4843C127.747 44.244 128.03 44.1239 128.366 44.1239H135.611C135.839 44.1359 136.025 44.0938 136.169 43.9977C136.326 43.9016 136.44 43.7935 136.512 43.6733C136.584 43.5412 136.62 43.409 136.62 43.2768C136.62 43.1927 136.584 43.0786 136.512 42.9344C136.44 42.7782 136.326 42.6521 136.169 42.556C136.025 42.4599 135.839 42.4058 135.611 42.3938H130.493C129.652 42.3697 128.955 42.1775 128.402 41.8171C127.861 41.4566 127.471 41.0481 127.231 40.5916C127.002 40.123 126.888 39.6484 126.888 39.1679C126.888 38.6993 127.008 38.2367 127.249 37.7802C127.489 37.3116 127.879 36.8971 128.42 36.5367C128.961 36.1762 129.652 35.984 130.493 35.96H130.601C130.673 35.948 130.745 35.9419 130.817 35.9419H137.593C137.93 35.9419 138.212 36.0621 138.44 36.3024C138.681 36.5307 138.801 36.813 138.801 37.1494Z" fill="#0069BD"/>
<defs>
<radialGradient id="paint0_radial_1_5" cx="0" cy="0" r="1" gradientUnits="userSpaceOnUse" gradientTransform="translate(39.2354 43.0906) rotate(-38.9129) scale(25.3073 25.3073)">
<stop offset="0.475962" stop-color="#0069BD"/>
<stop offset="0.942308" stop-color="#D9D9D9" stop-opacity="0"/>
</radialGradient>
<radialGradient id="paint1_radial_1_5" cx="0" cy="0" r="1" gradientUnits="userSpaceOnUse" gradientTransform="translate(39.2369 43.0885) rotate(-33.9129) scale(25.3073 25.3073)">
<stop offset="0.475962" stop-color="#0069BD"/>
<stop offset="0.942308" stop-color="#D9D9D9" stop-opacity="0"/>
</radialGradient>
<radialGradient id="paint2_radial_1_5" cx="0" cy="0" r="1" gradientUnits="userSpaceOnUse" gradientTransform="translate(39.235 43.0907) rotate(-28.9129) scale(25.3073)">
<stop offset="0.475962" stop-color="#0069BD"/>
<stop offset="0.942308" stop-color="#D9D9D9" stop-opacity="0"/>
</radialGradient>
<radialGradient id="paint3_radial_1_5" cx="0" cy="0" r="1" gradientUnits="userSpaceOnUse" gradientTransform="translate(39.2347 43.0906) rotate(-23.9129) scale(25.3073)">
<stop offset="0.475962" stop-color="#0069BD"/>
<stop offset="0.942308" stop-color="#D9D9D9" stop-opacity="0"/>
</radialGradient>
<radialGradient id="paint4_radial_1_5" cx="0" cy="0" r="1" gradientUnits="userSpaceOnUse" gradientTransform="translate(39.233 43.0917) rotate(-18.9129) scale(25.3073 25.3073)">
<stop offset="0.475962" stop-color="#0069BD"/>
<stop offset="0.942308" stop-color="#D9D9D9" stop-opacity="0"/>
</radialGradient>
<radialGradient id="paint5_radial_1_5" cx="0" cy="0" r="1" gradientUnits="userSpaceOnUse" gradientTransform="translate(39.2336 43.0916) rotate(-13.9129) scale(25.3073)">
<stop offset="0.475962" stop-color="#0069BD"/>
<stop offset="0.942308" stop-color="#D9D9D9" stop-opacity="0"/>
</radialGradient>
<radialGradient id="paint6_radial_1_5" cx="0" cy="0" r="1" gradientUnits="userSpaceOnUse" gradientTransform="translate(39.235 43.0896) rotate(-8.9129) scale(25.3073 25.3073)">
<stop offset="0.475962" stop-color="#0069BD"/>
<stop offset="0.942308" stop-color="#D9D9D9" stop-opacity="0"/>
</radialGradient>
<radialGradient id="paint7_radial_1_5" cx="0" cy="0" r="1" gradientUnits="userSpaceOnUse" gradientTransform="translate(39.2333 43.0922) rotate(-3.91289) scale(25.3073 25.3073)">
<stop offset="0.475962" stop-color="#0069BD"/>
<stop offset="0.942308" stop-color="#D9D9D9" stop-opacity="0"/>
</radialGradient>
<radialGradient id="paint8_radial_1_5" cx="0" cy="0" r="1" gradientUnits="userSpaceOnUse" gradientTransform="translate(39.2382 43.0891) rotate(1.08711) scale(25.3073 25.3073)">
<stop offset="0.475962" stop-color="#0069BD"/>
<stop offset="0.942308" stop-color="#D9D9D9" stop-opacity="0"/>
</radialGradient>
<radialGradient id="paint9_radial_1_5" cx="0" cy="0" r="1" gradientUnits="userSpaceOnUse" gradientTransform="translate(39.2368 43.0894) rotate(6.08711) scale(25.3073 25.3073)">
<stop offset="0.475962" stop-color="#0069BD"/>
<stop offset="0.942308" stop-color="#D9D9D9" stop-opacity="0"/>
</radialGradient>
<radialGradient id="paint10_radial_1_5" cx="0" cy="0" r="1" gradientUnits="userSpaceOnUse" gradientTransform="translate(39.2339 43.0908) rotate(11.0871) scale(25.3073)">
<stop offset="0.475962" stop-color="#0069BD"/>
<stop offset="0.942308" stop-color="#D9D9D9" stop-opacity="0"/>
</radialGradient>
<radialGradient id="paint11_radial_1_5" cx="0" cy="0" r="1" gradientUnits="userSpaceOnUse" gradientTransform="translate(39.2357 43.0897) rotate(16.0871) scale(25.3073 25.3073)">
<stop offset="0.475962" stop-color="#0069BD"/>
<stop offset="0.942308" stop-color="#D9D9D9" stop-opacity="0"/>
</radialGradient>
<radialGradient id="paint12_radial_1_5" cx="0" cy="0" r="1" gradientUnits="userSpaceOnUse" gradientTransform="translate(39.2347 43.0909) rotate(21.0871) scale(25.3073 25.3073)">
<stop offset="0.475962" stop-color="#0069BD"/>
<stop offset="0.942308" stop-color="#D9D9D9" stop-opacity="0"/>
</radialGradient>
<radialGradient id="paint13_radial_1_5" cx="0" cy="0" r="1" gradientUnits="userSpaceOnUse" gradientTransform="translate(39.2322 43.0921) rotate(26.0871) scale(25.3073)">
<stop offset="0.475962" stop-color="#0069BD"/>
<stop offset="0.942308" stop-color="#D9D9D9" stop-opacity="0"/>
</radialGradient>
<radialGradient id="paint14_radial_1_5" cx="0" cy="0" r="1" gradientUnits="userSpaceOnUse" gradientTransform="translate(39.2364 43.0905) rotate(31.0871) scale(25.3073)">
<stop offset="0.475962" stop-color="#0069BD"/>
<stop offset="0.942308" stop-color="#D9D9D9" stop-opacity="0"/>
</radialGradient>
<radialGradient id="paint15_radial_1_5" cx="0" cy="0" r="1" gradientUnits="userSpaceOnUse" gradientTransform="translate(39.237 43.0902) rotate(36.0871) scale(25.3073)">
<stop offset="0.475962" stop-color="#0069BD"/>
<stop offset="0.942308" stop-color="#D9D9D9" stop-opacity="0"/>
</radialGradient>
<radialGradient id="paint16_radial_1_5" cx="0" cy="0" r="1" gradientUnits="userSpaceOnUse" gradientTransform="translate(39.2314 43.0923) rotate(41.0871) scale(25.3073)">
<stop offset="0.475962" stop-color="#0069BD"/>
<stop offset="0.942308" stop-color="#D9D9D9" stop-opacity="0"/>
</radialGradient>
<radialGradient id="paint17_radial_1_5" cx="0" cy="0" r="1" gradientUnits="userSpaceOnUse" gradientTransform="translate(38.9814 43.0869) rotate(-50.3121) scale(15.8918 15.2099)">
<stop offset="0.475962" stop-color="#0069BD"/>
<stop offset="0.942308" stop-color="#D9D9D9" stop-opacity="0"/>
</radialGradient>
<radialGradient id="paint18_radial_1_5" cx="0" cy="0" r="1" gradientUnits="userSpaceOnUse" gradientTransform="translate(39.2373 43.5755) rotate(-50.3121) scale(27.1284 27.295)">
<stop offset="0.475962" stop-color="#0069BD"/>
<stop offset="0.942308" stop-color="#D9D9D9" stop-opacity="0"/>
</radialGradient>
</defs>
</svg>
